<?xml version="1.0" encoding="UTF-8"?>
<svg width="2066" height="635" viewBox="0 0 2066 635" xmlns="http://www.w3.org/2000/svg">
    <path id="aurili" fill="#000000" fill-rule="evenodd" stroke="none" d="M 1994.29541 139.421875 C 1986.112793 139.421875 1978.709473 135.9151 1972.085449 128.901367 C 1967.799316 122.666931 1965.65625 116.432678 1965.65625 110.198242 C 1965.65625 105.132813 1967.02002 100.067383 1969.747559 95.001953 C 1975.981934 85.65033 1984.164551 80.974609 1994.29541 80.974609 C 2004.036621 80.974609 2011.82959 84.481384 2017.674316 91.495117 C 2021.960449 96.950195 2024.103516 103.184509 2024.103516 110.198242 C 2024.103516 122.277405 2017.674316 131.434021 2004.815918 137.668457 C 2001.309082 138.837402 1997.802246 139.421875 1994.29541 139.421875 Z M 1994.879883 607 C 1985.52832 607 1977.735352 603.103516 1971.500977 595.310547 C 1967.604492 589.855469 1965.65625 581.672913 1965.65625 570.762695 L 1965.65625 228.261719 C 1965.65625 222.027283 1967.214844 216.377441 1970.332031 211.312012 C 1976.176758 202.350037 1984.359375 197.869141 1994.879883 197.869141 C 2004.621094 197.869141 2012.414063 201.765564 2018.258789 209.558594 C 2022.155273 215.013672 2024.103516 220.858337 2024.103516 227.092773 L 2024.103516 577.776367 C 2023.324219 590.245178 2017.284668 599.207031 2005.984863 604.662109 C 2002.478027 606.220703 1998.776367 607 1994.879883 607 Z M 1817.784668 607 L 1814.277832 607 C 1749.985596 604.662109 1697.968018 578.361084 1658.223633 528.096191 C 1632.896362 495.36554 1618.674316 458.349304 1615.557129 417.046387 C 1615.16748 408.47406 1614.972656 355.677246 1614.972656 258.654297 L 1614.972656 51.750977 C 1614.972656 43.17865 1618.089844 36.165039 1624.324219 30.709961 C 1630.558594 25.254883 1637.572266 22.527344 1645.365234 22.527344 C 1653.158203 22.527344 1659.977051 25.839294 1665.821777 32.463379 C 1670.497559 37.918457 1673.030273 44.347595 1673.419922 51.750977 L 1673.419922 400.09668 C 1673.419922 425.034302 1679.069824 448.607788 1690.369629 470.817871 C 1707.124634 501.210571 1731.477417 523.420349 1763.428711 537.447754 C 1781.352539 544.851074 1799.081543 548.552734 1816.615723 548.552734 C 1825.577637 548.552734 1832.591309 550.695801 1837.656738 554.981934 C 1844.67041 560.437012 1848.37207 567.645508 1848.761719 576.607422 C 1848.761719 585.569336 1845.644531 593.16748 1839.410156 599.401855 C 1832.786133 604.467285 1825.577637 607 1817.784668 607 Z M 1468.27002 139.421875 C 1460.087402 139.421875 1452.684082 135.9151 1446.060059 128.901367 C 1441.773926 122.666931 1439.630859 116.432678 1439.630859 110.198242 C 1439.630859 105.132813 1440.994629 100.067383 1443.722168 95.001953 C 1449.956543 85.65033 1458.13916 80.974609 1468.27002 80.974609 C 1478.01123 80.974609 1485.804199 84.481384 1491.648926 91.495117 C 1495.935059 96.950195 1498.078125 103.184509 1498.078125 110.198242 C 1498.078125 122.277405 1491.649048 131.434021 1478.790527 137.668457 C 1475.283691 138.837402 1471.776855 139.421875 1468.27002 139.421875 Z M 1468.854492 607 C 1459.50293 607 1451.709961 603.103516 1445.475586 595.310547 C 1441.579102 589.855469 1439.630859 581.672913 1439.630859 570.762695 L 1439.630859 228.261719 C 1439.630859 222.027283 1441.189453 216.377441 1444.306641 211.312012 C 1450.151367 202.350037 1458.333984 197.869141 1468.854492 197.869141 C 1478.595703 197.869141 1486.388672 201.765564 1492.233398 209.558594 C 1496.129883 215.013672 1498.078125 220.858337 1498.078125 227.092773 L 1498.078125 577.776367 C 1497.298828 590.245178 1491.259277 599.207031 1479.959473 604.662109 C 1476.452637 606.220703 1472.750977 607 1468.854492 607 Z M 1118.170898 607 C 1113.884766 607 1109.598633 606.025879 1105.3125 604.077637 C 1094.402344 597.453613 1088.947266 588.686584 1088.947266 577.776367 L 1088.947266 403.603516 C 1088.947266 380.614136 1092.454102 358.404419 1099.467773 336.973633 C 1118.171021 284.760498 1151.875244 245.796021 1200.581543 220.079102 C 1225.129517 207.610291 1250.846069 200.401855 1277.731934 198.453613 L 1287.667969 197.869141 C 1298.967773 197.869141 1307.637451 200.694092 1313.677002 206.343994 C 1319.716553 211.993896 1322.736328 218.910095 1322.736328 227.092773 C 1322.736328 230.209961 1322.34668 233.327148 1321.567383 236.444336 C 1316.112305 249.692444 1304.812622 256.316406 1287.667969 256.316406 L 1279.485352 256.900879 C 1249.4823 260.797363 1223.570923 271.31781 1201.750488 288.462402 C 1166.682007 318.465454 1148.563477 356.455811 1147.394531 402.43457 L 1147.394531 577.776367 C 1146.615234 588.686584 1142.913574 596.284668 1136.289551 600.570801 C 1129.665527 604.856934 1123.625977 607 1118.170898 607 Z M 768.071777 607 C 750.927124 607 733.393188 604.856934 715.469238 600.570801 C 666.373291 586.543396 627.213989 558.683838 597.990234 516.991211 C 574.611206 480.364075 562.921875 441.204773 562.921875 399.512207 L 562.921875 225.923828 C 563.311523 216.572205 566.720886 209.558594 573.150146 204.882813 C 579.579407 200.207031 586.105896 197.869141 592.72998 197.869141 L 598.574707 198.453613 C 613.771057 202.350098 621.369141 212.67572 621.369141 229.430664 L 621.369141 401.850098 C 622.148438 442.373718 636.565308 477.052124 664.620117 505.88623 C 693.843872 534.330688 728.327393 548.552734 768.071777 548.552734 L 780.345703 547.968262 C 824.765869 543.29248 860.223511 523.030945 886.719727 487.183105 C 905.033325 461.855835 914.189941 431.85321 914.189941 397.174316 L 914.189941 224.754883 C 915.358887 213.455017 920.813965 205.467285 930.555176 200.791504 C 934.841309 198.843262 939.127441 197.869141 943.413574 197.869141 C 949.258301 197.869141 954.908203 199.622559 960.363281 203.129395 C 968.545898 209.363831 972.637207 218.325623 972.637207 230.015137 L 972.637207 402.43457 C 972.637207 427.372192 968.15625 451.724976 959.194336 475.493652 C 940.491089 522.641357 908.735107 558.488647 863.925293 583.036621 C 833.142944 599.012329 801.192017 607 768.071777 607 Z M 421.479492 607 L 416.803711 607 C 407.062439 607 399.074768 602.908691 392.840332 594.726074 C 389.333496 589.270996 387.580078 582.452148 387.580078 574.269531 L 387.580078 409.448242 C 387.580078 355.286865 366.928894 313.010376 325.625977 282.617676 C 299.129761 264.693787 271.270142 255.731934 242.046387 255.731934 C 228.798279 255.731934 215.160706 257.485352 201.133301 260.992188 C 157.882111 273.850647 126.515717 300.930969 107.033203 342.233887 C 98.460907 362.106079 94.174805 381.977905 94.174805 401.850098 C 94.174805 424.449829 99.434998 446.85437 109.955566 469.064453 C 130.996674 507.639832 162.94754 532.771912 205.809082 544.461426 C 217.498596 547.188965 229.187927 548.552734 240.877441 548.552734 C 262.308228 548.552734 279.257751 545.435547 291.726563 539.201172 C 292.505859 539.201172 293.674805 538.811523 295.233398 538.032227 C 299.129883 536.083984 303.61084 535.109863 308.67627 535.109863 C 312.183105 535.109863 315.495117 535.694336 318.612305 536.863281 C 331.470764 541.928711 337.899902 551.085388 337.899902 564.333496 C 337.899902 579.919556 327.769165 590.634766 307.507324 596.479492 L 305.753906 597.063965 C 283.933472 603.687988 262.113403 607 240.292969 607 C 185.352264 607 137.231171 587.322937 95.928223 547.968262 C 55.79422 507.054962 35.727539 458.349426 35.727539 401.850098 C 35.727539 369.898743 43.130798 339.116821 57.9375 309.503418 C 77.809662 270.538391 107.03302 240.730591 145.608398 220.079102 C 176.390778 204.493103 208.14682 196.700195 240.877441 196.700195 C 297.766418 196.700195 346.179749 217.059143 386.118896 257.777588 C 426.058044 298.496033 446.027344 348.662781 446.027344 408.279297 L 446.027344 573.100586 C 446.027344 592.193481 437.844788 603.493164 421.479492 607 Z"/>
</svg>
